<mxfile host="app.diagrams.net" modified="2023-05-24T22:33:45.358Z" agent="Mozilla/5.0 (Macintosh; Intel Mac OS X 10_15_7) AppleWebKit/537.36 (KHTML, like Gecko) Chrome/113.0.0.0 Safari/537.36" etag="nPD1HQ6gNXy3h9GW1s_w" version="21.3.2" type="github">
  <diagram name="第 1 页" id="qCeJ8F9ar0Y0RMqBLcNG">
    <mxGraphModel dx="2261" dy="796" grid="1" gridSize="10" guides="1" tooltips="1" connect="1" arrows="1" fold="1" page="1" pageScale="1" pageWidth="827" pageHeight="1169" math="0" shadow="0">
      <root>
        <mxCell id="0" />
        <mxCell id="1" parent="0" />
        <mxCell id="-TwOvz3URIMJ0SHQHjhy-61" value="" style="group" vertex="1" connectable="0" parent="1">
          <mxGeometry x="-400" y="50" width="1580" height="780" as="geometry" />
        </mxCell>
        <mxCell id="-TwOvz3URIMJ0SHQHjhy-39" value="" style="rounded=0;whiteSpace=wrap;html=1;dashed=1;dashPattern=8 8;strokeWidth=2;strokeColor=#FF0000;" vertex="1" parent="-TwOvz3URIMJ0SHQHjhy-61">
          <mxGeometry y="80" width="400" height="430" as="geometry" />
        </mxCell>
        <mxCell id="-TwOvz3URIMJ0SHQHjhy-6" value="" style="group" vertex="1" connectable="0" parent="-TwOvz3URIMJ0SHQHjhy-61">
          <mxGeometry x="420" y="100" width="394" height="410" as="geometry" />
        </mxCell>
        <mxCell id="-TwOvz3URIMJ0SHQHjhy-41" value="" style="rounded=0;whiteSpace=wrap;html=1;dashed=1;dashPattern=8 8;strokeWidth=2;strokeColor=#FF0000;" vertex="1" parent="-TwOvz3URIMJ0SHQHjhy-6">
          <mxGeometry x="-6" y="-20" width="400" height="430" as="geometry" />
        </mxCell>
        <mxCell id="-TwOvz3URIMJ0SHQHjhy-1" value="&lt;font style=&quot;font-size: 15px;&quot;&gt;archive-service&lt;/font&gt;" style="ellipse;whiteSpace=wrap;html=1;" vertex="1" parent="-TwOvz3URIMJ0SHQHjhy-6">
          <mxGeometry x="100" width="160" height="90" as="geometry" />
        </mxCell>
        <mxCell id="-TwOvz3URIMJ0SHQHjhy-2" value="&lt;font style=&quot;font-size: 15px;&quot;&gt;ArcRedis&lt;/font&gt;&lt;br&gt;稿件详情&lt;br&gt;稿件附加信息&lt;br&gt;稿件计数详情&lt;br&gt;稿件分P详情" style="rounded=1;whiteSpace=wrap;html=1;" vertex="1" parent="-TwOvz3URIMJ0SHQHjhy-6">
          <mxGeometry y="160" width="160" height="90" as="geometry" />
        </mxCell>
        <mxCell id="-TwOvz3URIMJ0SHQHjhy-4" style="edgeStyle=orthogonalEdgeStyle;rounded=0;orthogonalLoop=1;jettySize=auto;html=1;exitX=0.5;exitY=1;exitDx=0;exitDy=0;" edge="1" parent="-TwOvz3URIMJ0SHQHjhy-6" source="-TwOvz3URIMJ0SHQHjhy-1" target="-TwOvz3URIMJ0SHQHjhy-2">
          <mxGeometry relative="1" as="geometry">
            <Array as="points">
              <mxPoint x="180" y="130" />
              <mxPoint x="80" y="130" />
            </Array>
          </mxGeometry>
        </mxCell>
        <mxCell id="-TwOvz3URIMJ0SHQHjhy-3" value="&lt;font style=&quot;&quot;&gt;&lt;span style=&quot;font-size: 15px;&quot;&gt;ArcSimpleRedis&lt;/span&gt;&lt;br&gt;&lt;font style=&quot;font-size: 12px;&quot;&gt;稿件简化版详情&lt;/font&gt;&lt;br&gt;&lt;/font&gt;" style="rounded=1;whiteSpace=wrap;html=1;" vertex="1" parent="-TwOvz3URIMJ0SHQHjhy-6">
          <mxGeometry x="210" y="157.5" width="160" height="95" as="geometry" />
        </mxCell>
        <mxCell id="-TwOvz3URIMJ0SHQHjhy-5" style="edgeStyle=orthogonalEdgeStyle;rounded=0;orthogonalLoop=1;jettySize=auto;html=1;" edge="1" parent="-TwOvz3URIMJ0SHQHjhy-6" source="-TwOvz3URIMJ0SHQHjhy-1" target="-TwOvz3URIMJ0SHQHjhy-3">
          <mxGeometry relative="1" as="geometry">
            <Array as="points">
              <mxPoint x="180" y="130" />
              <mxPoint x="290" y="130" />
            </Array>
          </mxGeometry>
        </mxCell>
        <mxCell id="-TwOvz3URIMJ0SHQHjhy-7" value="" style="group" vertex="1" connectable="0" parent="-TwOvz3URIMJ0SHQHjhy-61">
          <mxGeometry x="10" y="100" width="370" height="252.5" as="geometry" />
        </mxCell>
        <mxCell id="-TwOvz3URIMJ0SHQHjhy-8" value="&lt;font style=&quot;font-size: 15px;&quot;&gt;archive-service&lt;/font&gt;" style="ellipse;whiteSpace=wrap;html=1;" vertex="1" parent="-TwOvz3URIMJ0SHQHjhy-7">
          <mxGeometry x="100" width="160" height="90" as="geometry" />
        </mxCell>
        <mxCell id="-TwOvz3URIMJ0SHQHjhy-9" value="&lt;font style=&quot;font-size: 15px;&quot;&gt;ArcRedis&lt;/font&gt;&lt;br&gt;稿件详情&lt;br&gt;稿件附加信息&lt;br&gt;稿件计数详情&lt;br&gt;稿件分P详情" style="rounded=1;whiteSpace=wrap;html=1;" vertex="1" parent="-TwOvz3URIMJ0SHQHjhy-7">
          <mxGeometry y="160" width="160" height="90" as="geometry" />
        </mxCell>
        <mxCell id="-TwOvz3URIMJ0SHQHjhy-10" style="edgeStyle=orthogonalEdgeStyle;rounded=0;orthogonalLoop=1;jettySize=auto;html=1;exitX=0.5;exitY=1;exitDx=0;exitDy=0;" edge="1" parent="-TwOvz3URIMJ0SHQHjhy-7" source="-TwOvz3URIMJ0SHQHjhy-8" target="-TwOvz3URIMJ0SHQHjhy-9">
          <mxGeometry relative="1" as="geometry">
            <Array as="points">
              <mxPoint x="180" y="130" />
              <mxPoint x="80" y="130" />
            </Array>
          </mxGeometry>
        </mxCell>
        <mxCell id="-TwOvz3URIMJ0SHQHjhy-11" value="&lt;font style=&quot;&quot;&gt;&lt;span style=&quot;font-size: 15px;&quot;&gt;ArcSimpleRedis&lt;/span&gt;&lt;br&gt;&lt;font style=&quot;font-size: 12px;&quot;&gt;稿件简化版详情&lt;/font&gt;&lt;br&gt;&lt;/font&gt;" style="rounded=1;whiteSpace=wrap;html=1;" vertex="1" parent="-TwOvz3URIMJ0SHQHjhy-7">
          <mxGeometry x="210" y="157.5" width="160" height="95" as="geometry" />
        </mxCell>
        <mxCell id="-TwOvz3URIMJ0SHQHjhy-12" style="edgeStyle=orthogonalEdgeStyle;rounded=0;orthogonalLoop=1;jettySize=auto;html=1;" edge="1" parent="-TwOvz3URIMJ0SHQHjhy-7" source="-TwOvz3URIMJ0SHQHjhy-8" target="-TwOvz3URIMJ0SHQHjhy-11">
          <mxGeometry relative="1" as="geometry">
            <Array as="points">
              <mxPoint x="180" y="130" />
              <mxPoint x="290" y="130" />
            </Array>
          </mxGeometry>
        </mxCell>
        <mxCell id="-TwOvz3URIMJ0SHQHjhy-19" value="" style="group" vertex="1" connectable="0" parent="-TwOvz3URIMJ0SHQHjhy-61">
          <mxGeometry x="910" y="100" width="390" height="410" as="geometry" />
        </mxCell>
        <mxCell id="-TwOvz3URIMJ0SHQHjhy-49" value="" style="rounded=0;whiteSpace=wrap;html=1;dashed=1;dashPattern=8 8;strokeWidth=2;strokeColor=#FF0000;" vertex="1" parent="-TwOvz3URIMJ0SHQHjhy-19">
          <mxGeometry x="-10" y="-20" width="400" height="430" as="geometry" />
        </mxCell>
        <mxCell id="-TwOvz3URIMJ0SHQHjhy-20" value="&lt;font style=&quot;font-size: 15px;&quot;&gt;archive-service&lt;/font&gt;" style="ellipse;whiteSpace=wrap;html=1;" vertex="1" parent="-TwOvz3URIMJ0SHQHjhy-19">
          <mxGeometry x="100" width="160" height="90" as="geometry" />
        </mxCell>
        <mxCell id="-TwOvz3URIMJ0SHQHjhy-21" value="&lt;font style=&quot;font-size: 15px;&quot;&gt;ArcRedis&lt;/font&gt;&lt;br&gt;稿件详情&lt;br&gt;稿件附加信息&lt;br&gt;稿件计数详情&lt;br&gt;稿件分P详情" style="rounded=1;whiteSpace=wrap;html=1;" vertex="1" parent="-TwOvz3URIMJ0SHQHjhy-19">
          <mxGeometry y="160" width="160" height="90" as="geometry" />
        </mxCell>
        <mxCell id="-TwOvz3URIMJ0SHQHjhy-22" style="edgeStyle=orthogonalEdgeStyle;rounded=0;orthogonalLoop=1;jettySize=auto;html=1;exitX=0.5;exitY=1;exitDx=0;exitDy=0;" edge="1" parent="-TwOvz3URIMJ0SHQHjhy-19" source="-TwOvz3URIMJ0SHQHjhy-20" target="-TwOvz3URIMJ0SHQHjhy-21">
          <mxGeometry relative="1" as="geometry">
            <Array as="points">
              <mxPoint x="180" y="130" />
              <mxPoint x="80" y="130" />
            </Array>
          </mxGeometry>
        </mxCell>
        <mxCell id="-TwOvz3URIMJ0SHQHjhy-23" value="&lt;font style=&quot;&quot;&gt;&lt;span style=&quot;font-size: 15px;&quot;&gt;ArcSimpleRedis&lt;/span&gt;&lt;br&gt;&lt;font style=&quot;font-size: 12px;&quot;&gt;稿件简化版详情&lt;/font&gt;&lt;br&gt;&lt;/font&gt;" style="rounded=1;whiteSpace=wrap;html=1;" vertex="1" parent="-TwOvz3URIMJ0SHQHjhy-19">
          <mxGeometry x="210" y="157.5" width="160" height="95" as="geometry" />
        </mxCell>
        <mxCell id="-TwOvz3URIMJ0SHQHjhy-24" style="edgeStyle=orthogonalEdgeStyle;rounded=0;orthogonalLoop=1;jettySize=auto;html=1;" edge="1" parent="-TwOvz3URIMJ0SHQHjhy-19" source="-TwOvz3URIMJ0SHQHjhy-20" target="-TwOvz3URIMJ0SHQHjhy-23">
          <mxGeometry relative="1" as="geometry">
            <Array as="points">
              <mxPoint x="180" y="130" />
              <mxPoint x="290" y="130" />
            </Array>
          </mxGeometry>
        </mxCell>
        <mxCell id="-TwOvz3URIMJ0SHQHjhy-25" value="&lt;font style=&quot;font-size: 18px;&quot;&gt;。。。&lt;/font&gt;" style="text;strokeColor=none;align=center;fillColor=none;html=1;verticalAlign=middle;whiteSpace=wrap;rounded=0;" vertex="1" parent="-TwOvz3URIMJ0SHQHjhy-61">
          <mxGeometry x="760" y="211.25" width="196" height="30" as="geometry" />
        </mxCell>
        <mxCell id="-TwOvz3URIMJ0SHQHjhy-27" value="&lt;font style=&quot;font-size: 15px;&quot;&gt;taishan&lt;/font&gt;" style="shape=cylinder3;whiteSpace=wrap;html=1;boundedLbl=1;backgroundOutline=1;size=15;" vertex="1" parent="-TwOvz3URIMJ0SHQHjhy-61">
          <mxGeometry x="600" y="560" width="60" height="80" as="geometry" />
        </mxCell>
        <mxCell id="-TwOvz3URIMJ0SHQHjhy-28" value="&lt;font style=&quot;font-size: 15px;&quot;&gt;mysql&lt;/font&gt;" style="shape=cylinder3;whiteSpace=wrap;html=1;boundedLbl=1;backgroundOutline=1;size=15;" vertex="1" parent="-TwOvz3URIMJ0SHQHjhy-61">
          <mxGeometry x="600" y="700" width="60" height="80" as="geometry" />
        </mxCell>
        <mxCell id="-TwOvz3URIMJ0SHQHjhy-32" style="edgeStyle=orthogonalEdgeStyle;rounded=0;orthogonalLoop=1;jettySize=auto;html=1;" edge="1" parent="-TwOvz3URIMJ0SHQHjhy-61" source="-TwOvz3URIMJ0SHQHjhy-9" target="-TwOvz3URIMJ0SHQHjhy-27">
          <mxGeometry relative="1" as="geometry">
            <Array as="points">
              <mxPoint x="90" y="410" />
              <mxPoint x="630" y="410" />
            </Array>
          </mxGeometry>
        </mxCell>
        <mxCell id="-TwOvz3URIMJ0SHQHjhy-33" style="edgeStyle=orthogonalEdgeStyle;rounded=0;orthogonalLoop=1;jettySize=auto;html=1;exitX=0.5;exitY=1;exitDx=0;exitDy=0;entryX=0.5;entryY=0;entryDx=0;entryDy=0;entryPerimeter=0;" edge="1" parent="-TwOvz3URIMJ0SHQHjhy-61" source="-TwOvz3URIMJ0SHQHjhy-11" target="-TwOvz3URIMJ0SHQHjhy-27">
          <mxGeometry relative="1" as="geometry">
            <Array as="points">
              <mxPoint x="300" y="410" />
              <mxPoint x="630" y="410" />
            </Array>
          </mxGeometry>
        </mxCell>
        <mxCell id="-TwOvz3URIMJ0SHQHjhy-34" style="edgeStyle=orthogonalEdgeStyle;rounded=0;orthogonalLoop=1;jettySize=auto;html=1;entryX=0.5;entryY=0;entryDx=0;entryDy=0;entryPerimeter=0;" edge="1" parent="-TwOvz3URIMJ0SHQHjhy-61" source="-TwOvz3URIMJ0SHQHjhy-2" target="-TwOvz3URIMJ0SHQHjhy-27">
          <mxGeometry relative="1" as="geometry">
            <Array as="points">
              <mxPoint x="500" y="410" />
              <mxPoint x="630" y="410" />
            </Array>
          </mxGeometry>
        </mxCell>
        <mxCell id="-TwOvz3URIMJ0SHQHjhy-35" style="edgeStyle=orthogonalEdgeStyle;rounded=0;orthogonalLoop=1;jettySize=auto;html=1;entryX=0.5;entryY=0;entryDx=0;entryDy=0;entryPerimeter=0;" edge="1" parent="-TwOvz3URIMJ0SHQHjhy-61" source="-TwOvz3URIMJ0SHQHjhy-3" target="-TwOvz3URIMJ0SHQHjhy-27">
          <mxGeometry relative="1" as="geometry">
            <Array as="points">
              <mxPoint x="710" y="410" />
              <mxPoint x="630" y="410" />
            </Array>
          </mxGeometry>
        </mxCell>
        <mxCell id="-TwOvz3URIMJ0SHQHjhy-36" style="edgeStyle=orthogonalEdgeStyle;rounded=0;orthogonalLoop=1;jettySize=auto;html=1;entryX=0.5;entryY=0;entryDx=0;entryDy=0;entryPerimeter=0;" edge="1" parent="-TwOvz3URIMJ0SHQHjhy-61" source="-TwOvz3URIMJ0SHQHjhy-21" target="-TwOvz3URIMJ0SHQHjhy-27">
          <mxGeometry relative="1" as="geometry">
            <Array as="points">
              <mxPoint x="990" y="410" />
              <mxPoint x="630" y="410" />
            </Array>
          </mxGeometry>
        </mxCell>
        <mxCell id="-TwOvz3URIMJ0SHQHjhy-29" style="edgeStyle=orthogonalEdgeStyle;rounded=0;orthogonalLoop=1;jettySize=auto;html=1;" edge="1" parent="-TwOvz3URIMJ0SHQHjhy-61" source="-TwOvz3URIMJ0SHQHjhy-27" target="-TwOvz3URIMJ0SHQHjhy-28">
          <mxGeometry relative="1" as="geometry" />
        </mxCell>
        <mxCell id="-TwOvz3URIMJ0SHQHjhy-37" style="edgeStyle=orthogonalEdgeStyle;rounded=0;orthogonalLoop=1;jettySize=auto;html=1;entryX=0.5;entryY=0;entryDx=0;entryDy=0;entryPerimeter=0;" edge="1" parent="-TwOvz3URIMJ0SHQHjhy-61" source="-TwOvz3URIMJ0SHQHjhy-23" target="-TwOvz3URIMJ0SHQHjhy-27">
          <mxGeometry relative="1" as="geometry">
            <Array as="points">
              <mxPoint x="1200" y="410" />
              <mxPoint x="630" y="410" />
            </Array>
          </mxGeometry>
        </mxCell>
        <mxCell id="-TwOvz3URIMJ0SHQHjhy-51" value="&lt;font color=&quot;#ff0000&quot; style=&quot;font-size: 18px;&quot;&gt;Group-4&lt;/font&gt;" style="text;strokeColor=none;align=center;fillColor=none;html=1;verticalAlign=middle;whiteSpace=wrap;rounded=0;" vertex="1" parent="-TwOvz3URIMJ0SHQHjhy-61">
          <mxGeometry x="1060" y="50" width="70" height="30" as="geometry" />
        </mxCell>
        <mxCell id="-TwOvz3URIMJ0SHQHjhy-52" value="&lt;font color=&quot;#ff0000&quot; style=&quot;font-size: 18px;&quot;&gt;Group-2&lt;/font&gt;" style="text;strokeColor=none;align=center;fillColor=none;html=1;verticalAlign=middle;whiteSpace=wrap;rounded=0;" vertex="1" parent="-TwOvz3URIMJ0SHQHjhy-61">
          <mxGeometry x="570" y="50" width="70" height="30" as="geometry" />
        </mxCell>
        <mxCell id="-TwOvz3URIMJ0SHQHjhy-53" value="&lt;font color=&quot;#ff0000&quot; style=&quot;font-size: 18px;&quot;&gt;Group-1&lt;/font&gt;" style="text;strokeColor=none;align=center;fillColor=none;html=1;verticalAlign=middle;whiteSpace=wrap;rounded=0;" vertex="1" parent="-TwOvz3URIMJ0SHQHjhy-61">
          <mxGeometry x="160" y="50" width="70" height="30" as="geometry" />
        </mxCell>
        <mxCell id="-TwOvz3URIMJ0SHQHjhy-54" value="账号" style="ellipse;whiteSpace=wrap;html=1;" vertex="1" parent="-TwOvz3URIMJ0SHQHjhy-61">
          <mxGeometry x="1380" y="80" width="120" height="80" as="geometry" />
        </mxCell>
        <mxCell id="-TwOvz3URIMJ0SHQHjhy-55" value="视频云" style="ellipse;whiteSpace=wrap;html=1;" vertex="1" parent="-TwOvz3URIMJ0SHQHjhy-61">
          <mxGeometry x="1380" y="241.25" width="120" height="80" as="geometry" />
        </mxCell>
        <mxCell id="-TwOvz3URIMJ0SHQHjhy-56" value="位置服务" style="ellipse;whiteSpace=wrap;html=1;" vertex="1" parent="-TwOvz3URIMJ0SHQHjhy-61">
          <mxGeometry x="1390" y="430" width="120" height="80" as="geometry" />
        </mxCell>
        <mxCell id="-TwOvz3URIMJ0SHQHjhy-57" value="。&lt;br&gt;。&lt;br&gt;。" style="text;strokeColor=none;align=center;fillColor=none;html=1;verticalAlign=middle;whiteSpace=wrap;rounded=0;" vertex="1" parent="-TwOvz3URIMJ0SHQHjhy-61">
          <mxGeometry x="1420" y="340" width="60" height="30" as="geometry" />
        </mxCell>
        <mxCell id="-TwOvz3URIMJ0SHQHjhy-58" style="edgeStyle=orthogonalEdgeStyle;rounded=0;orthogonalLoop=1;jettySize=auto;html=1;exitX=0.5;exitY=0;exitDx=0;exitDy=0;entryX=1;entryY=0.5;entryDx=0;entryDy=0;" edge="1" parent="-TwOvz3URIMJ0SHQHjhy-61" source="-TwOvz3URIMJ0SHQHjhy-8" target="-TwOvz3URIMJ0SHQHjhy-54">
          <mxGeometry relative="1" as="geometry">
            <Array as="points">
              <mxPoint x="190" />
              <mxPoint x="1580" />
              <mxPoint x="1580" y="120" />
            </Array>
          </mxGeometry>
        </mxCell>
        <mxCell id="-TwOvz3URIMJ0SHQHjhy-59" style="edgeStyle=orthogonalEdgeStyle;rounded=0;orthogonalLoop=1;jettySize=auto;html=1;exitX=0.5;exitY=0;exitDx=0;exitDy=0;entryX=1;entryY=0.5;entryDx=0;entryDy=0;" edge="1" parent="-TwOvz3URIMJ0SHQHjhy-61" source="-TwOvz3URIMJ0SHQHjhy-1" target="-TwOvz3URIMJ0SHQHjhy-55">
          <mxGeometry relative="1" as="geometry">
            <Array as="points">
              <mxPoint x="600" />
              <mxPoint x="1580" />
              <mxPoint x="1580" y="281" />
            </Array>
          </mxGeometry>
        </mxCell>
        <mxCell id="-TwOvz3URIMJ0SHQHjhy-60" style="edgeStyle=orthogonalEdgeStyle;rounded=0;orthogonalLoop=1;jettySize=auto;html=1;exitX=0.5;exitY=0;exitDx=0;exitDy=0;entryX=1;entryY=0.5;entryDx=0;entryDy=0;" edge="1" parent="-TwOvz3URIMJ0SHQHjhy-61" source="-TwOvz3URIMJ0SHQHjhy-20" target="-TwOvz3URIMJ0SHQHjhy-56">
          <mxGeometry relative="1" as="geometry">
            <Array as="points">
              <mxPoint x="1090" />
              <mxPoint x="1580" />
              <mxPoint x="1580" y="470" />
            </Array>
          </mxGeometry>
        </mxCell>
      </root>
    </mxGraphModel>
  </diagram>
</mxfile>
